HIERARCHY
ROOT hips
{
	OFFSET 0.000000 104.274902 0.000000
	CHANNELS 6 Xposition Yposition Zposition Xrotation Yrotation Zrotation
	JOINT spine
	{
		OFFSET 0.000000 10.181549 0.131524
		CHANNELS 6 Xposition Yposition Zposition Xrotation Yrotation Zrotation
		JOINT chest
		{
			OFFSET 0.000000 9.893990 -1.470706
			CHANNELS 3 Xrotation Yrotation Zrotation
			JOINT upperChest
			{
				OFFSET 0.000000 9.220787 -1.370637
				CHANNELS 3 Xrotation Yrotation Zrotation
				JOINT neck
				{
					OFFSET 0.000000 16.740372 -2.049022
					CHANNELS 6 Xposition Yposition Zposition Xrotation Yrotation Zrotation
					JOINT head
					{
						OFFSET 0.000000 9.617859 1.684976
						CHANNELS 6 Xposition Yposition Zposition Xrotation Yrotation Zrotation
						JOINT headEnd
						{
							OFFSET 0.000000 22.037384 7.501072
							CHANNELS 6 Xposition Yposition Zposition Xrotation Yrotation Zrotation
							End Site
							{
								OFFSET 0.000000 23.106567 -2.828246
							}
						}
					}
				}
				JOINT rightShoulder
				{
					OFFSET -4.570000 11.014877 -2.160840
					CHANNELS 6 Xposition Yposition Zposition Xrotation Yrotation Zrotation
					JOINT rightUpperArm
					{
						OFFSET -10.592867 -0.524796 -2.232105
						CHANNELS 3 Xrotation Yrotation Zrotation
						JOINT rightLowerArm
						{
							OFFSET -27.841497 0.000000 -0.000002
							CHANNELS 3 Xrotation Yrotation Zrotation
							JOINT rightHand
							{
								OFFSET -28.328812 0.000000 -0.000001
								CHANNELS 3 Xrotation Yrotation Zrotation
								JOINT rightThumbProximal
								{
									OFFSET -2.464798 -1.573990 2.681911
									CHANNELS 6 Xposition Yposition Zposition Xrotation Yrotation Zrotation
									JOINT rightThumbIntermediate
									{
										OFFSET -3.244781 -1.873383 1.873376
										CHANNELS 3 Xrotation Yrotation Zrotation
										JOINT rightThumbDistal
										{
											OFFSET -2.646263 -1.527817 1.527818
											CHANNELS 6 Xposition Yposition Zposition Xrotation Yrotation Zrotation
											JOINT rightHandThumb4
											{
												OFFSET -1.994591 -1.151581 1.151575
												CHANNELS 6 Xposition Yposition Zposition Xrotation Yrotation Zrotation
												End Site
												{
													OFFSET -1.860176 -1.142715 1.365483
												}
											}
										}
									}
								}
								JOINT rightIndexProximal
								{
									OFFSET -9.108299 -0.517883 2.259803
									CHANNELS 6 Xposition Yposition Zposition Xrotation Yrotation Zrotation
									JOINT rightIndexIntermediate
									{
										OFFSET -3.699997 0.000000 0.000000
										CHANNELS 3 Xrotation Yrotation Zrotation
										JOINT rightIndexDistal
										{
											OFFSET -2.850006 0.000000 0.000000
											CHANNELS 3 Xrotation Yrotation Zrotation
											JOINT rightHandIndex4
											{
												OFFSET -2.772194 0.000000 0.000000
												CHANNELS 3 Xrotation Yrotation Zrotation
												End Site
												{
													OFFSET -2.772202 0.000000 -0.000484
												}
											}
										}
									}
								}
								JOINT rightMiddleProximal
								{
									OFFSET -9.532501 0.000000 -0.000000
									CHANNELS 6 Xposition Yposition Zposition Xrotation Yrotation Zrotation
									JOINT rightMiddleIntermediate
									{
										OFFSET -3.699997 0.000000 0.000000
										CHANNELS 3 Xrotation Yrotation Zrotation
										JOINT rightMiddleDistal
										{
											OFFSET -2.949997 0.000000 0.000000
											CHANNELS 3 Xrotation Yrotation Zrotation
											JOINT rightHandMiddle4
											{
												OFFSET -2.946594 0.000000 0.000000
												CHANNELS 3 Xrotation Yrotation Zrotation
												End Site
												{
													OFFSET -2.946602 0.000000 -0.000982
												}
											}
										}
									}
								}
								JOINT rightRingProximal
								{
									OFFSET -9.103600 -0.043106 -1.865100
									CHANNELS 6 Xposition Yposition Zposition Xrotation Yrotation Zrotation
									JOINT rightRingIntermediate
									{
										OFFSET -3.379303 0.000000 0.000000
										CHANNELS 3 Xrotation Yrotation Zrotation
										JOINT rightRingDistal
										{
											OFFSET -2.889694 0.000000 0.000000
											CHANNELS 3 Xrotation Yrotation Zrotation
											JOINT rightHandRing4
											{
												OFFSET -2.638802 0.000000 0.000000
												CHANNELS 3 Xrotation Yrotation Zrotation
												End Site
												{
													OFFSET -2.638802 0.000000 0.004218
												}
											}
										}
									}
								}
								JOINT rightLittleProximal
								{
									OFFSET -8.076698 -0.486725 -3.806299
									CHANNELS 6 Xposition Yposition Zposition Xrotation Yrotation Zrotation
									JOINT rightLittleIntermediate
									{
										OFFSET -3.600006 0.000000 0.000000
										CHANNELS 3 Xrotation Yrotation Zrotation
										JOINT rightLittleDistal
										{
											OFFSET -2.099998 0.000000 0.000000
											CHANNELS 3 Xrotation Yrotation Zrotation
											JOINT rightHandPinky4
											{
												OFFSET -2.115791 0.000000 0.000000
												CHANNELS 3 Xrotation Yrotation Zrotation
												End Site
												{
													OFFSET -2.115799 0.000000 0.000174
												}
											}
										}
									}
								}
							}
						}
					}
				}
				JOINT leftShoulder
				{
					OFFSET 4.570400 11.014679 -2.160816
					CHANNELS 6 Xposition Yposition Zposition Xrotation Yrotation Zrotation
					JOINT leftUpperArm
					{
						OFFSET 10.592373 -0.524597 -2.232116
						CHANNELS 3 Xrotation Yrotation Zrotation
						JOINT leftLowerArm
						{
							OFFSET 27.841488 0.000000 0.000001
							CHANNELS 3 Xrotation Yrotation Zrotation
							JOINT leftHand
							{
								OFFSET 28.328808 0.000000 -0.000000
								CHANNELS 3 Xrotation Yrotation Zrotation
								JOINT leftThumbProximal
								{
									OFFSET 2.466103 -1.576202 2.681698
									CHANNELS 6 Xposition Yposition Zposition Xrotation Yrotation Zrotation
									JOINT leftThumbIntermediate
									{
										OFFSET 3.243317 -1.872528 1.872530
										CHANNELS 3 Xrotation Yrotation Zrotation
										JOINT leftThumbDistal
										{
											OFFSET 2.647881 -1.528763 1.528754
											CHANNELS 6 Xposition Yposition Zposition Xrotation Yrotation Zrotation
											JOINT leftHandThumb4
											{
												OFFSET 1.998924 -1.154083 1.154080
												CHANNELS 6 Xposition Yposition Zposition Xrotation Yrotation Zrotation
												End Site
												{
													OFFSET 1.884041 -1.149155 1.337651
												}
											}
										}
									}
								}
								JOINT leftIndexProximal
								{
									OFFSET 9.109299 -0.518005 2.259900
									CHANNELS 6 Xposition Yposition Zposition Xrotation Yrotation Zrotation
									JOINT leftIndexIntermediate
									{
										OFFSET 3.699997 0.000000 0.000000
										CHANNELS 3 Xrotation Yrotation Zrotation
										JOINT leftIndexDistal
										{
											OFFSET 2.850006 0.000000 0.000000
											CHANNELS 3 Xrotation Yrotation Zrotation
											JOINT leftHandIndex4
											{
												OFFSET 2.774895 0.000000 0.000000
												CHANNELS 3 Xrotation Yrotation Zrotation
												End Site
												{
													OFFSET 2.774902 0.000000 -0.000072
												}
											}
										}
									}
								}
								JOINT leftMiddleProximal
								{
									OFFSET 9.533401 0.000000 0.000000
									CHANNELS 6 Xposition Yposition Zposition Xrotation Yrotation Zrotation
									JOINT leftMiddleIntermediate
									{
										OFFSET 3.699997 0.000000 0.000000
										CHANNELS 3 Xrotation Yrotation Zrotation
										JOINT leftMiddleDistal
										{
											OFFSET 2.949997 0.000000 0.000000
											CHANNELS 3 Xrotation Yrotation Zrotation
											JOINT leftHandMiddle4
											{
												OFFSET 2.952896 0.000000 0.000000
												CHANNELS 3 Xrotation Yrotation Zrotation
												End Site
												{
													OFFSET 2.952904 0.000000 0.000165
												}
											}
										}
									}
								}
								JOINT leftRingProximal
								{
									OFFSET 9.104500 -0.042999 -1.865101
									CHANNELS 6 Xposition Yposition Zposition Xrotation Yrotation Zrotation
									JOINT leftRingIntermediate
									{
										OFFSET 3.149994 0.000000 0.000000
										CHANNELS 3 Xrotation Yrotation Zrotation
										JOINT leftRingDistal
										{
											OFFSET 2.950005 0.000000 0.000000
											CHANNELS 3 Xrotation Yrotation Zrotation
											JOINT leftHandRing4
											{
												OFFSET 2.644302 0.000000 0.000000
												CHANNELS 3 Xrotation Yrotation Zrotation
												End Site
												{
													OFFSET 2.644302 0.000000 0.000083
												}
											}
										}
									}
								}
								JOINT leftLittleProximal
								{
									OFFSET 8.077805 -0.486893 -3.806302
									CHANNELS 6 Xposition Yposition Zposition Xrotation Yrotation Zrotation
									JOINT leftLittleIntermediate
									{
										OFFSET 3.600006 0.000000 0.000000
										CHANNELS 3 Xrotation Yrotation Zrotation
										JOINT leftLittleDistal
										{
											OFFSET 2.099998 0.000000 0.000000
											CHANNELS 3 Xrotation Yrotation Zrotation
											JOINT leftHandPinky4
											{
												OFFSET 2.125496 0.000000 0.000000
												CHANNELS 3 Xrotation Yrotation Zrotation
												End Site
												{
													OFFSET 2.125504 0.000000 -0.001254
												}
											}
										}
									}
								}
							}
						}
					}
				}
			}
		}
	}
	JOINT rightUpperLeg
	{
		OFFSET -8.207800 -6.751701 -1.599544
		CHANNELS 6 Xposition Yposition Zposition Xrotation Yrotation Zrotation
		JOINT rightLowerLeg
		{
			OFFSET 0.000004 -44.370152 0.345934
			CHANNELS 3 Xrotation Yrotation Zrotation
			JOINT rightFoot
			{
				OFFSET 0.000004 -44.423664 -3.043535
				CHANNELS 3 Xrotation Yrotation Zrotation
				JOINT rightToes
				{
					OFFSET 0.000001 -8.728691 10.710592
					CHANNELS 3 Xrotation Yrotation Zrotation
					JOINT rightToesEnd
					{
						OFFSET 0.000000 -0.000665 9.278101
						CHANNELS 3 Xrotation Yrotation Zrotation
						End Site
						{
							OFFSET 0.000000 -0.000665 9.278103
						}
					}
				}
			}
		}
	}
	JOINT leftUpperLeg
	{
		OFFSET 8.207800 -6.751701 -1.599544
		CHANNELS 6 Xposition Yposition Zposition Xrotation Yrotation Zrotation
		JOINT leftLowerLeg
		{
			OFFSET 0.000004 -44.370037 0.346940
			CHANNELS 3 Xrotation Yrotation Zrotation
			JOINT leftFoot
			{
				OFFSET 0.000004 -44.423611 -3.044388
				CHANNELS 3 Xrotation Yrotation Zrotation
				JOINT leftToes
				{
					OFFSET 0.000001 -8.728690 10.710592
					CHANNELS 3 Xrotation Yrotation Zrotation
					JOINT leftToesEnd
					{
						OFFSET 0.000000 -0.000680 9.278101
						CHANNELS 3 Xrotation Yrotation Zrotation
						End Site
						{
							OFFSET 0.000000 -0.000680 9.278101
						}
					}
				}
			}
		}
	}
}
MOTION
Frames: 4
Frame Time: 0.033333
-28.766241 105.921318 87.266029 0.060285 -0.346849 0.619719 0.000001 10.181558 0.131517 -14.985090 2.225218 -8.741764 7.528467 0.433438 4.353718 7.515444 0.446775 4.372304 -0.000000 16.740381 -2.049030 -1.536111 -0.920680 1.883876 -0.000001 9.617843 1.684984 2.685328 0.266656 -11.968931 -0.000005 22.037384 7.501065 -0.000000 0.000000 -0.000001 -4.570002 11.014897 -2.160849 0.324237 -3.998164 5.419285 28.200931 -9.988579 73.720096 -0.000001 29.083786 0.000051 -65.407585 -7.999389 4.346259 -2.464784 -1.573989 2.681918 -2.369390 -12.758218 -19.325209 10.122433 -19.070836 4.539533 -2.646271 -1.527804 1.527815 5.079719 -16.963948 1.121660 -1.994617 -1.151580 1.151579 0.000003 -0.000003 0.000001 -9.108287 -0.517888 2.259813 0.004818 0.259566 -2.130378 1.469503 -4.279884 37.885581 2.946832 -5.685006 54.772066 -0.000000 0.000002 -0.000000 -9.532492 0.000009 0.000009 0.348957 -2.179104 18.193802 2.357316 -5.221083 48.574512 3.686619 -6.138446 61.945328 -0.000002 -0.000003 0.000002 -9.103580 -0.043103 -1.865090 1.929977 -4.811889 43.690456 3.689904 -6.140194 61.975996 4.682699 -6.570220 70.927007 -0.000003 -0.000000 0.000000 -8.076682 -0.486723 -3.806285 3.930372 -6.261519 64.202002 4.889439 -6.637644 72.724528 5.521454 -6.800868 78.122174 0.000000 -0.000002 0.000001 4.570402 11.014692 -2.160827 0.661251 -4.368215 -5.774111 30.781060 -15.901039 -80.384954 -0.000005 -36.768237 -0.000010 -65.410065 6.552003 -2.312861 2.466092 -1.576201 2.681694 -1.352089 12.706712 20.180607 10.337683 18.004193 -4.241783 2.647895 -1.528736 1.528750 7.265305 20.087077 -0.978040 1.998932 -1.154081 1.154063 0.000000 0.000001 -0.000000 9.109298 -0.518003 2.259898 0.155970 1.460289 -12.194820 1.842448 4.692550 -42.856503 3.221354 5.831320 -57.806903 0.000002 -0.000005 0.000001 9.533408 0.000015 -0.000000 0.693810 3.017157 -25.896727 3.000750 5.687175 -55.608764 4.246993 6.359420 -67.443576 -0.000000 -0.000000 0.000000 9.104494 -0.043000 -1.865103 1.863523 4.715063 -43.113363 4.709787 6.531324 -71.564543 5.631467 6.767461 -79.511666 0.000001 0.000001 -0.000000 8.077810 -0.486887 -3.806303 6.552186 7.990737 -56.825893 6.213511 2.762787 -84.439013 6.782554 6.880659 -89.176657 -0.000000 0.000001 -0.000002 -8.207801 -6.751701 -1.599544 -26.737356 -4.855419 -4.484414 33.024071 9.176419 -5.898710 13.329333 0.955337 15.618604 -1.914396 0.000002 0.000006 -0.000002 0.000000 0.000001 8.207800 -6.751678 -1.599545 2.570293 23.966094 -11.655062 12.601078 9.768374 4.342025 2.395036 0.700971 0.094602 -8.072350 -0.000002 0.000005 0.000001 0.000005 -0.000001 
-29.253771 104.125381 90.676735 0.947785 0.529711 0.496811 0.000002 10.181541 0.131536 -15.894520 0.641885 -6.929107 6.082769 0.126569 2.831970 6.085019 0.118381 2.830396 0.000000 16.740345 -2.049011 -0.589322 -0.217141 0.949734 -0.000000 9.617892 1.684973 2.927326 2.208566 -10.463063 0.000006 22.037354 7.501085 -0.000002 0.000000 0.000000 -4.570003 11.014855 -2.160838 0.070878 -5.090233 2.904215 35.571482 -5.456380 78.536835 0.000002 27.003686 0.000018 -72.154911 -2.164350 -1.374955 -2.464792 -1.573993 2.681919 -2.369395 -12.758215 -19.325211 10.122433 -19.070836 4.539530 -2.646278 -1.527808 1.527824 5.079720 -16.963951 1.121653 -1.994583 -1.151585 1.151574 0.000003 -0.000005 -0.000000 -9.108296 -0.517882 2.259812 0.006798 0.308110 -2.529083 1.439715 -4.241418 37.484642 2.907054 -5.656851 54.369443 -0.000000 -0.000002 0.000000 -9.532495 -0.000015 0.000007 0.293590 -2.002938 16.676523 2.216986 -5.094329 47.013661 3.545040 -6.061313 60.612936 0.000001 0.000002 0.000002 -9.103609 -0.043098 -1.865093 1.690807 -4.549214 40.759929 3.371632 -5.960863 58.957305 4.399110 -6.465872 68.429152 0.000001 -0.000000 0.000001 -8.076694 -0.486731 -3.806291 3.493901 -6.032383 60.127651 4.411107 -6.470574 68.535416 5.117808 -6.703925 74.690133 -0.000000 -0.000000 0.000001 4.570401 11.014681 -2.160815 0.507743 -1.651696 -3.574576 33.321754 -16.285145 -85.248069 -0.000006 -28.625751 0.000004 -72.085721 1.179472 -2.491771 2.466089 -1.576207 2.681693 -1.352094 12.706709 20.180607 10.337689 18.004193 -4.241780 2.647905 -1.528741 1.528765 7.265306 20.087077 -0.978041 1.998916 -1.154091 1.154074 -0.000004 -0.000003 0.000003 9.109286 -0.518016 2.259894 0.122499 1.295743 -10.802536 1.729388 4.568055 -41.455901 3.079636 5.740107 -56.401114 0.000002 -0.000000 0.000001 9.533398 0.000016 -0.000007 0.594351 2.803346 -23.938111 2.812086 5.553974 -53.682490 4.069214 6.283093 -65.828933 -0.000000 -0.000000 0.000001 9.104506 -0.042980 -1.865106 1.649285 4.476024 -40.440047 4.417927 6.427339 -68.978429 5.411189 6.723249 -77.636295 0.000002 0.000000 -0.000001 8.077791 -0.486879 -3.806310 6.097966 7.959260 -53.552829 5.845548 2.716958 -81.352068 6.533132 6.872598 -87.093586 0.000002 0.000008 0.000006 -8.207801 -6.751698 -1.599531 -21.477105 -1.355114 -4.041183 28.563212 8.569124 -4.035471 8.304006 0.252123 15.037080 -11.693836 0.123036 -3.469029 0.000000 -0.000000 0.000000 8.207800 -6.751690 -1.599530 2.239142 21.496079 -12.855953 12.258590 9.681236 4.598112 -0.127845 5.443121 2.107283 -10.912424 -0.032136 0.570676 0.000001 -0.000000 0.000000 
-29.767277 103.103722 93.238159 0.659125 0.951097 0.749067 0.000002 10.181553 0.131522 -13.975959 -0.189028 -6.013190 4.231966 -0.051044 1.865094 4.237093 -0.059140 1.855419 0.000002 16.740374 -2.049024 0.379043 0.312899 0.498359 0.000001 9.617858 1.684969 3.061203 4.132401 -9.488395 0.000002 22.037354 7.501077 0.000000 -0.000000 -0.000002 -4.569997 11.014886 -2.160855 -0.114470 -5.676909 1.290013 37.844873 -1.105666 80.083558 -0.000011 28.102730 0.000010 -82.216859 -0.438357 -4.789260 -2.464808 -1.574008 2.681912 -2.369392 -12.758213 -19.325213 10.122431 -19.070831 4.539536 -2.646281 -1.527810 1.527812 5.079721 -16.963950 1.121651 -1.994602 -1.151584 1.151575 -0.000000 -0.000005 0.000001 -9.108313 -0.517889 2.259801 0.001464 0.142604 -1.170249 1.542331 -4.371612 38.851151 3.043471 -5.751687 55.741812 -0.000000 0.000001 0.000000 -9.532507 0.000006 0.000002 0.289438 -1.989020 16.557150 2.184023 -5.063532 46.641521 3.515644 -6.044762 60.334257 -0.000001 -0.000001 -0.000001 -9.103609 -0.043103 -1.865099 1.537012 -4.364995 38.781206 3.109803 -5.796096 56.401216 4.136909 -6.356628 66.081267 0.000002 0.000000 0.000003 -8.076698 -0.486722 -3.806300 3.134529 -5.812358 56.645720 3.932894 -6.262745 64.225191 4.654865 -6.560583 70.683381 -0.000001 -0.000000 0.000000 4.570403 11.014703 -2.160829 0.348207 -0.238227 -1.854276 33.145238 -16.751456 -86.953526 0.000009 -25.298578 0.000008 -82.149567 -0.787225 -4.741898 2.466096 -1.576207 2.681698 -1.352090 12.706714 20.180608 10.337688 18.004196 -4.241786 2.647907 -1.528752 1.528755 7.265305 20.087081 -0.978039 1.998905 -1.154075 1.154085 0.000000 0.000003 0.000001 9.109295 -0.518009 2.259901 0.114723 1.254338 -10.453320 1.701513 4.536409 -41.104649 3.044443 5.716695 -56.048584 0.000001 -0.000002 -0.000002 9.533422 -0.000014 0.000000 0.539041 2.675393 -22.780491 2.691693 5.463855 -52.428635 3.952027 6.229469 -64.753533 0.000000 -0.000001 -0.000001 9.104516 -0.042995 -1.865099 1.483344 4.274255 -38.264957 4.152768 6.319701 -66.590110 5.180102 6.668737 -75.654741 0.000001 0.000000 0.000000 8.077789 -0.486891 -3.806301 5.681265 7.907506 -50.534428 5.459036 2.646913 -78.081882 6.209696 6.848676 -84.386577 -0.000000 0.000001 -0.000001 -8.207801 -6.751718 -1.599541 -18.915470 -0.239065 -5.103052 29.192710 7.696077 -0.560943 2.768175 -0.230786 7.692921 -14.051108 0.000096 -0.098997 0.000000 -0.000000 0.000000 8.207801 -6.751706 -1.599537 1.811090 14.050173 -14.150279 12.978824 9.605232 5.365102 -1.163537 14.202342 2.104385 -14.191422 0.071662 -0.992445 0.000000 -0.000002 0.000000 
-30.330875 103.205750 95.160728 -0.164494 1.067383 0.906193 0.000001 10.181533 0.131522 -10.981465 -0.357891 -5.681231 2.793565 -0.097021 1.360766 2.796796 -0.095114 1.352584 -0.000001 16.740379 -2.049026 1.261829 0.587726 0.580138 -0.000001 9.617858 1.684986 3.114003 5.711494 -9.392118 0.000003 22.037369 7.501070 -0.000001 -0.000000 -0.000000 -4.570001 11.014886 -2.160851 -0.129921 -5.773304 1.274199 37.031616 1.868212 78.761493 0.000006 34.916801 0.000022 -85.403825 -0.263234 -8.592309 -2.464792 -1.573979 2.681905 -2.369391 -12.758218 -19.325206 10.122428 -19.070831 4.539532 -2.646265 -1.527804 1.527820 5.079721 -16.963950 1.121651 -1.994610 -1.151584 1.151581 0.000000 -0.000003 0.000001 -9.108298 -0.517890 2.259799 0.003058 -0.206168 1.692034 1.768575 -4.637644 41.731209 3.338131 -5.940688 58.634107 -0.000000 0.000000 0.000001 -9.532498 0.000023 -0.000002 0.333110 -2.130304 17.772227 2.250430 -5.125165 47.388938 3.588071 -6.085199 61.019810 -0.000001 -0.000002 -0.000002 -9.103586 -0.043093 -1.865104 1.472735 -4.284014 37.928911 2.917220 -5.664079 54.472589 3.908755 -6.251076 64.003579 -0.000001 0.000000 0.000000 -8.076700 -0.486709 -3.806304 2.882935 -5.639564 54.124349 3.496090 -6.033635 60.148429 4.171315 -6.371690 66.391583 -0.000000 0.000000 0.000000 4.570400 11.014689 -2.160823 0.323163 -0.070414 -1.077146 31.821121 -15.623545 -84.772531 -0.000004 -30.569482 0.000006 -85.329649 -1.464269 -8.488599 2.466084 -1.576203 2.681704 -1.352091 12.706715 20.180605 10.337686 18.004194 -4.241780 2.647873 -1.528741 1.528755 7.265306 20.087084 -0.978040 1.998905 -1.154076 1.154075 0.000000 0.000000 0.000002 9.109283 -0.518010 2.259901 0.145218 1.409581 -11.764904 1.807220 4.654391 -42.424009 3.177354 5.803536 -57.372817 0.000000 -0.000001 -0.000001 9.533395 -0.000004 0.000001 0.545491 2.690671 -22.918203 2.683735 5.457743 -52.344869 3.948032 6.227604 -64.716746 -0.000001 0.000000 0.000001 9.104484 -0.042997 -1.865100 1.385215 4.147142 -36.928343 3.950833 6.228923 -64.742694 4.978427 6.614259 -73.910993 0.000000 -0.000001 0.000000 8.077802 -0.486897 -3.806299 5.332526 7.847022 -47.990098 5.081007 2.556003 -74.845616 5.839794 6.802454 -81.274723 0.000003 0.000004 -0.000002 -8.207802 -6.751722 -1.599542 -17.168259 -1.299513 -6.305054 29.506325 7.196766 2.164078 3.406680 -0.109714 3.386722 -15.184173 0.021306 -1.452830 0.000000 -0.000000 -0.000000 8.207796 -6.751707 -1.599539 -0.722392 8.525863 -13.819700 18.962593 9.789837 5.244889 0.548995 20.521816 -2.141751 -15.922897 0.016776 -0.259088 0.000000 0.000003 -0.000000 
